<?xml version="1.0" encoding="iso-8859-1"?>
<!-- Generator: Adobe Illustrator 16.0.0, SVG Export Plug-In . SVG Version: 6.00 Build 0)  -->
<!DOCTYPE svg PUBLIC "-//W3C//DTD SVG 1.1//EN" "http://www.w3.org/Graphics/SVG/1.1/DTD/svg11.dtd">
<svg version="1.1" id="Capa_1" xmlns="http://www.w3.org/2000/svg" xmlns:xlink="http://www.w3.org/1999/xlink" x="0px" y="0px"
	 width="123.573px" height="123.572px" viewBox="0 0 123.573 123.572" style="enable-background:new 0 0 123.573 123.572;"
	 xml:space="preserve">
<g>
	<g>
		<path d="M95.35,112.713c-6.614-5.042-14.465-11.759-16.136-14.141c-0.784-3.526-2.98-14.551-4.014-19.75
			c0.486-1.084,0.764-2.299,0.752-3.641l-0.238-27.9c-0.036-4.065-2.865-7.05-6.126-8.631V4.907C69.588,2.198,67.39,0,64.68,0
			c-2.709,0-4.908,2.198-4.908,4.907v33.255c-3.761,1.434-7.297,4.708-7.257,9.319l0.226,26.148
			c-7.111,2.932-16.108,6.951-18.777,9.516c-1.313,1.261-4.392,4.218-7.986,33.931c-0.384,3.181,1.882,6.069,5.063,6.455
			c0.236,0.028,0.472,0.042,0.703,0.042c2.893,0,5.395-2.161,5.751-5.104c1.3-10.75,3.505-23.75,4.879-27.209
			c2.28-1.475,9.478-4.728,16.218-7.488c1.816,0.873,3.86,1.341,5.849,1.324c0.061,0,0.119-0.01,0.181-0.012
			c1.206,6.053,2.867,14.299,3.422,16.667c0.37,1.577,1.351,5.765,20.279,20.188c1.05,0.8,2.285,1.187,3.511,1.187
			c1.748,0,3.477-0.788,4.617-2.284C98.389,118.293,97.899,114.654,95.35,112.713z"/>
		<path d="M57.87,35.136V13.354c-3.767,2.217-6.285,6.318-6.246,11.002C51.665,28.962,54.17,32.958,57.87,35.136z"/>
		<path d="M76.904,24.139c-0.037-4.357-2.276-8.18-5.65-10.424v21.057C74.687,32.486,76.941,28.573,76.904,24.139z"/>
	</g>
</g>
</svg>
